<!-- <svg width="10" height="32" viewBox="0 0 10 32" fill="none" xmlns="http://www.w3.org/2000/svg">
<path d="M8.48358 16.3125H6.28631V22.875H3.35662V16.3125H0.954281V13.6172H3.35662V11.5371C3.35662 9.19336 4.76287 7.875 6.90155 7.875C7.92694 7.875 9.01092 8.08008 9.01092 8.08008V10.3945H7.80975C6.63787 10.3945 6.28631 11.0977 6.28631 11.8594V13.6172H8.89373L8.48358 16.3125Z" fill="white"/>
<a href="https://www.figma.com/design/Nx4sNsAeWJfmVVOXuDSmxJ?node-id=2-2093">
<rect fill="black" fill-opacity="0" x="0.30975" y="-1.125" width="9.375" height="17.25"/>
</a>
</svg> -->


<svg width="9" height="15" viewBox="0 0 9 15" fill="none" xmlns="http://www.w3.org/2000/svg">
<path d="M7.52948 8.4375H5.33221V15H2.40252V8.4375H0.000179291V5.74219H2.40252V3.66211C2.40252 1.31836 3.80877 0 5.94744 0C6.97284 0 8.05682 0.205078 8.05682 0.205078V2.51953H6.85565C5.68377 2.51953 5.33221 3.22266 5.33221 3.98438V5.74219H7.93963L7.52948 8.4375Z" fill="white"/>
</svg>
