<svg width="14" height="14" viewBox="0 0 14 14" fill="none" xmlns="http://www.w3.org/2000/svg">
<path d="M12.1877 0C12.6857 0 13.1252 0.439453 13.1252 0.966797V12.1875C13.1252 12.7148 12.6857 13.125 12.1877 13.125H0.908382C0.410336 13.125 0.000179291 12.7148 0.000179291 12.1875V0.966797C0.000179291 0.439453 0.410336 0 0.908382 0H12.1877ZM3.95526 11.25V5.00977H2.02166V11.25H3.95526ZM2.98846 4.13086C3.60369 4.13086 4.10174 3.63281 4.10174 3.01758C4.10174 2.40234 3.60369 1.875 2.98846 1.875C2.34393 1.875 1.84588 2.40234 1.84588 3.01758C1.84588 3.63281 2.34393 4.13086 2.98846 4.13086ZM11.2502 11.25V7.82227C11.2502 6.15234 10.8693 4.83398 8.90643 4.83398C7.96893 4.83398 7.3244 5.36133 7.06073 5.85938H7.03143V5.00977H5.18573V11.25H7.11932V8.17383C7.11932 7.35352 7.2658 6.5625 8.29119 6.5625C9.28729 6.5625 9.28729 7.5 9.28729 8.20312V11.25H11.2502Z" fill="white"/>
<a href="https://www.figma.com/design/Nx4sNsAeWJfmVVOXuDSmxJ?node-id=2-2093">
<rect fill="black" fill-opacity="0" x="0.356625" y="-1.125" width="13.125" height="17.25"/>
</a>
</svg>
